<svg width="180" height="48" viewBox="0 0 180 52" fill="none" xmlns="http://www.w3.org/2000/svg">
  <defs>
    <linearGradient id="a" x1="0" y1="0" x2="1" y2="1"><stop offset="0%" stop-color="#52B788"/><stop offset="100%" stop-color="#2D6A4F"/></linearGradient>
    <linearGradient id="b" x1="0" y1="0" x2="1" y2="1"><stop offset="0%" stop-color="#74C69D"/><stop offset="100%" stop-color="#40916C"/></linearGradient>
    <linearGradient id="c" x1="0" y1="0" x2="1" y2="1"><stop offset="0%" stop-color="#95D5B2"/><stop offset="100%" stop-color="#74C69D"/></linearGradient>
  </defs>
  <path d="M4 40 L14 18 L20 18 L12 36 L28 36 L18 52 L12 52 L20 38 Z" fill="url(#a)" opacity="0.55"/>
  <path d="M9 29 L19 7 L25 7 L17 25 L33 25 L23 47 L17 47 L25 27 Z" fill="url(#b)" opacity="0.8"/>
  <path d="M14 18 L24 0 L30 0 L22 16 L38 16 L28 38 L22 38 L30 18 Z" fill="url(#c)"/>
  <text x="50" y="30" font-family="DM Sans, Inter, system-ui, sans-serif" font-size="24" font-weight="600" fill="#1B2B3A">edge energy</text>
</svg>