<svg width="180" height="48" viewBox="0 0 180 52" fill="none" xmlns="http://www.w3.org/2000/svg">
  <rect width="180" height="52" rx="8" fill="#1B2B3A"/>
  <defs>
    <linearGradient id="a" x1="0" y1="0" x2="1" y2="1"><stop offset="0%" stop-color="#52B788"/><stop offset="100%" stop-color="#2D6A4F"/></linearGradient>
    <linearGradient id="b" x1="0" y1="0" x2="1" y2="1"><stop offset="0%" stop-color="#74C69D"/><stop offset="100%" stop-color="#40916C"/></linearGradient>
    <linearGradient id="c" x1="0" y1="0" x2="1" y2="1"><stop offset="0%" stop-color="#95D5B2"/><stop offset="100%" stop-color="#74C69D"/></linearGradient>
  </defs>
  <path d="M10 40 L20 18 L26 18 L18 36 L34 36 L24 52 L18 52 L26 38 Z" fill="url(#a)" opacity="0.55"/>
  <path d="M15 29 L25 7 L31 7 L23 25 L39 25 L29 47 L23 47 L31 27 Z" fill="url(#b)" opacity="0.8"/>
  <path d="M20 18 L30 0 L36 0 L28 16 L44 16 L34 38 L28 38 L36 18 Z" fill="url(#c)"/>
  <text x="56" y="30" font-family="DM Sans, Inter, system-ui, sans-serif" font-size="24" font-weight="600" fill="#FFFFFF">edge energy</text>
</svg>