<svg width="64" height="64" viewBox="0 0 64 72" fill="none" xmlns="http://www.w3.org/2000/svg">
  <defs>
    <linearGradient id="a" x1="0" y1="0" x2="1" y2="1"><stop offset="0%" stop-color="#2D6A4F"/><stop offset="100%" stop-color="#1B4332"/></linearGradient>
    <linearGradient id="b" x1="0" y1="0" x2="1" y2="1"><stop offset="0%" stop-color="#52B788"/><stop offset="100%" stop-color="#2D6A4F"/></linearGradient>
    <linearGradient id="c" x1="0" y1="0" x2="1" y2="1"><stop offset="0%" stop-color="#95D5B2"/><stop offset="100%" stop-color="#52B788"/></linearGradient>
  </defs>
  <path d="M4 60 L18 28 L27 28 L14 54 L38 54 L24 70 L15 70 L28 52 Z" fill="url(#a)" opacity="0.55"/>
  <path d="M10 45 L24 13 L33 13 L20 39 L44 39 L30 65 L21 65 L34 41 Z" fill="url(#b)" opacity="0.8"/>
  <path d="M16 30 L30 2 L39 2 L26 24 L50 24 L36 50 L27 50 L40 26 Z" fill="url(#c)"/>
</svg>
